# xmcd
#
# Track frame offsets: 
#        150
#        25916
#        47633
#        70388
#        90388
#        112641
#        135040
#        151511
#        174182
#        197017
#        217781
#        239318
#
# Disc length: 3466 seconds
#
# Revision: 0
# Processed by: cddbd v1.5.2PL0 Copyright (c) Steve Scherf et al.
# Submitted via: ExactAudioCopy v1.1
#
DISCID=800d880c
DTITLE=Djavan - Na Pista, etc.
DYEAR=2005
DGENRE=Latin
TTITLE0=Tanta Saudade
TTITLE1=Asa
TTITLE2=Azul
TTITLE3=Miragem
TTITLE4=Sina
TTITLE5=Capim
TTITLE6=Fato Consumado
TTITLE7=Acelerou
TTITLE8=Se
TTITLE9=Tanta Saudade [Versão 2]
TTITLE10=Celeuma
TTITLE11=Flor Do Medo
EXTD=
EXTT0=
EXTT1=
EXTT2=
EXTT3=
EXTT4=
EXTT5=
EXTT6=
EXTT7=
EXTT8=
EXTT9=
EXTT10=
EXTT11=
PLAYORDER=
